PathFileType	4	(X/Y/Z)	C:/Users/opensim2020/Desktop/walking_exp_matlab/subject02_walking06_straight_04.trc	
DataRate	CameraRate	NumFrames	NumMarkers	Units	OrigDataRate	OrigDataStartFrame	OrigNumFrames	
100.00	100.00	4	41	mm	100.00	2844	216	
Frame#	Time	LFHD			RFHD			LBHD			RBHD			C7			T10			CLAV			STRN			RBAK			LSHO			LUPA			LELB			LFRM			LWRA			LWRB			LFIN			RSHO			RUPA			RELB			RFRM			RWRA			RWRB			RFIN			LASI			RASI			LPSI			RPSI			LTHI			LKNE			LTIB			LANK			LHEE			LTOE			RTHI			RKNE			RTIB			RANK			RHEE			RTOE			*39			*40			
		X1	Y1	Z1	X2	Y2	Z2	X3	Y3	Z3	X4	Y4	Z4	X5	Y5	Z5	X6	Y6	Z6	X7	Y7	Z7	X8	Y8	Z8	X9	Y9	Z9	X10	Y10	Z10	X11	Y11	Z11	X12	Y12	Z12	X13	Y13	Z13	X14	Y14	Z14	X15	Y15	Z15	X16	Y16	Z16	X17	Y17	Z17	X18	Y18	Z18	X19	Y19	Z19	X20	Y20	Z20	X21	Y21	Z21	X22	Y22	Z22	X23	Y23	Z23	X24	Y24	Z24	X25	Y25	Z25	X26	Y26	Z26	X27	Y27	Z27	X28	Y28	Z28	X29	Y29	Z29	X30	Y30	Z30	X31	Y31	Z31	X32	Y32	Z32	X33	Y33	Z33	X34	Y34	Z34	X35	Y35	Z35	X36	Y36	Z36	X37	Y37	Z37	X38	Y38	Z38	X39	Y39	Z39	X40	Y40	Z40	X41	Y41	Z41	

190	1.890	-935.92944	-1079.27588	1704.16577	-1078.21985	-1096.69531	1692.48022	-952.82910	-938.87732	1650.43408	-1095.53674	-945.24347	1639.42529	-1039.78967	-879.81213	1509.24414	-1051.63293	-834.69220	1227.13513	-1011.51202	-1017.61792	1440.51282	-1024.93762	-1078.03821	1274.12012	-1114.88879	-830.96771	1331.56055	-855.11871	-919.01880	1476.33508	-784.27991	-866.70837	1281.39709	-779.96277	-838.84607	1144.40137	-760.13757	-814.53503	1017.44519	-764.21643	-846.17249	878.99768	-750.42328	-793.91730	895.90405	-740.88861	-793.29907	829.48431	-1215.46484	-977.38708	1482.15649	-1300.27686	-989.58643	1287.33765	-1313.42725	-1039.44617	1147.30017	-1318.15015	-1102.15845	1042.69226	-1282.61121	-1179.06238	936.64282	-1322.11365	-1142.97363	918.82623	-1314.58813	-1197.47485	871.95966	-902.39264	-1086.34985	988.25543	-1154.59290	-1082.52539	954.63031	-980.41235	-871.92963	1015.88062	-1097.01477	-868.51923	1010.18188	-844.29132	-1081.98877	675.73480	-885.21576	-1087.68396	471.80664	-900.56403	-1054.99353	278.58258	-943.15527	-1089.17786	62.51607	-1002.97809	-1066.25720	36.26357	-905.33160	-1243.07971	28.39512	-1230.87646	-952.66071	657.49573	-1219.15088	-916.93103	455.36142	-1213.75000	-774.05292	332.65057	-1174.88684	-650.97125	185.67960	-1110.73523	-604.07983	165.00870	-1185.29968	-719.83917	34.21151	-1034.54382	-1002.55518	1788.45557	-3360.33423	2845.12769	1033.89392 
191	1.900	-932.88129	-1087.21814	1704.64075	-1075.03772	-1105.69592	1693.31458	-951.28973	-946.19696	1651.17017	-1093.93701	-954.30707	1640.88062	-1038.30811	-887.84247	1510.21594	-1049.76953	-843.60309	1227.89905	-1009.60480	-1026.06482	1441.84729	-1022.56665	-1086.86877	1275.53015	-1114.08350	-839.13324	1332.49731	-853.84497	-926.46881	1477.74292	-782.06897	-877.43964	1282.29700	-777.22278	-851.01807	1144.67981	-757.80072	-829.60822	1016.84827	-761.47266	-865.24042	879.54370	-747.68689	-812.18890	894.96820	-737.87659	-813.12970	828.37646	-1213.63403	-986.03119	1483.06995	-1297.94885	-997.88397	1288.21753	-1310.82666	-1046.22449	1147.85681	-1315.51282	-1107.78601	1042.45740	-1279.63855	-1183.40381	935.14142	-1319.65991	-1147.24573	918.05499	-1311.27869	-1200.58130	869.64392	-899.43298	-1094.53308	989.92340	-1150.85205	-1091.50256	955.92828	-978.01569	-881.05780	1016.38251	-1094.74414	-877.30365	1011.25653	-842.31989	-1087.77820	675.91748	-883.82159	-1090.98010	471.91989	-900.34314	-1055.97754	279.02777	-943.38654	-1089.30981	62.56582	-1003.04865	-1066.32666	36.33589	-905.42566	-1243.29138	28.24680	-1229.85986	-966.87592	656.55518	-1220.06873	-935.07123	454.68301	-1214.68433	-791.29889	334.77979	-1175.61450	-665.06055	191.23068	-1111.31482	-617.09979	173.19882	-1185.22253	-726.20282	37.34816	-1031.83533	-1011.48468	1789.67383	-3360.36987	2845.29346	1033.86841 
192	1.910	-930.09125	-1094.36853	1705.41162	-1071.95801	-1114.66064	1694.28687	-949.66656	-953.90924	1652.20447	-1092.36414	-963.32141	1642.26587	-1036.74500	-896.22876	1511.01575	-1047.96667	-852.15363	1228.75574	-1007.79596	-1034.40405	1443.15552	-1020.37750	-1095.35217	1276.76831	-1112.23987	-848.10870	1333.25012	-852.56274	-934.06555	1479.06653	-779.97968	-887.16577	1283.04517	-774.61188	-863.31140	1144.94299	-754.86786	-845.55389	1016.41797	-758.60724	-885.04883	880.18787	-744.90002	-831.30817	894.13440	-734.94696	-834.84607	827.68811	-1211.66687	-994.12604	1484.07837	-1295.92627	-1006.03033	1288.92712	-1307.51123	-1052.65332	1147.65796	-1312.83337	-1113.39014	1042.09045	-1276.76294	-1187.45935	933.31793	-1317.33252	-1151.58533	917.26636	-1308.12500	-1203.79602	867.39020	-896.61273	-1102.39722	990.99768	-1147.65601	-1100.13708	957.08862	-975.65680	-889.56219	1017.11316	-1092.30396	-885.72253	1012.06342	-840.80450	-1092.96350	675.87769	-882.55780	-1094.02380	471.98248	-899.30334	-1057.94910	279.54636	-943.44360	-1089.66089	62.63710	-1002.97272	-1066.33740	36.37630	-905.36847	-1243.20667	28.03148	-1228.92163	-981.22382	655.83740	-1220.51721	-953.53070	454.26559	-1215.78821	-808.96130	336.58124	-1175.74438	-679.36816	196.62498	-1111.25085	-630.97931	180.18040	-1186.92004	-736.54083	42.01799	-1029.30420	-1020.34808	1790.78027	-3360.26660	2845.17798	1033.79358 
193	1.920	-927.04633	-1102.06128	1705.96362	-1068.94604	-1123.59070	1695.26257	-948.13104	-961.64154	1653.30347	-1090.92859	-972.25958	1643.74438	-1035.12415	-904.40729	1512.25562	-1046.07776	-860.54980	1229.80237	-1006.24731	-1042.43884	1444.29272	-1018.38019	-1103.90027	1278.21851	-1109.89246	-856.76788	1334.12183	-851.16840	-941.96057	1480.31116	-777.61475	-897.57721	1283.79797	-771.65063	-875.52911	1145.11902	-751.96594	-861.46387	1016.08038	-756.07599	-904.66962	880.92590	-742.18323	-850.81500	893.35217	-731.88489	-855.62799	827.10889	-1210.13586	-1002.53241	1484.90808	-1294.09534	-1013.94928	1289.35376	-1304.65027	-1059.23999	1147.65845	-1310.43054	-1118.85657	1041.48328	-1274.05249	-1191.91663	931.57983	-1315.10156	-1156.01855	916.47687	-1305.21960	-1206.96008	865.16919	-893.84259	-1110.14648	991.49689	-1145.02759	-1108.46423	958.26929	-973.38232	-897.75305	1018.16278	-1089.81726	-893.71429	1012.93329	-839.52704	-1097.55066	675.60016	-881.30701	-1097.34424	472.21127	-897.71106	-1060.58411	279.99832	-943.15918	-1089.91357	62.82648	-1002.91376	-1066.29077	36.45104	-905.32104	-1243.29504	28.01113	-1228.01624	-995.46967	655.86633	-1220.87280	-972.01471	454.16010	-1216.38342	-826.62549	338.52686	-1175.13550	-694.45996	201.56229	-1110.14136	-646.46014	185.43146	-1190.27991	-749.67938	47.04585	-1026.87415	-1029.08484	1791.73230	-3360.28076	2845.20239	1033.95032 
